<svg version="1.1" viewBox="0.0 0.0 960.3412073490814 579.4041994750656" fill="none" stroke="none" stroke-linecap="square" stroke-miterlimit="10" xmlns:xlink="http://www.w3.org/1999/xlink" xmlns="http://www.w3.org/2000/svg"><clipPath id="p.0"><path d="m0 0l960.3412 0l0 579.4042l-960.3412 0l0 -579.4042z" clip-rule="nonzero"/></clipPath><g clip-path="url(#p.0)"><path fill="#000000" fill-opacity="0.0" d="m0 0l960.3412 0l0 579.4042l-960.3412 0z" fill-rule="evenodd"/><path fill="#ffd966" d="m511.35434 484.5433l0 0c0 -41.069122 34.040436 -74.36221 76.03146 -74.36221l0 0c20.164856 0 39.503723 7.834564 53.76239 21.780182c14.258667 13.945648 22.269104 32.859955 22.269104 52.58203l0 0c0 41.069122 -34.040405 74.36221 -76.031494 74.36221l0 0c-41.991028 0 -76.03146 -33.29309 -76.03146 -74.36221z" fill-rule="evenodd"/><defs><linearGradient id="p.1" gradientUnits="userSpaceOnUse" gradientTransform="matrix(25.926000083216863 0.0 0.0 25.926000083216863 0.0 0.0)" spreadMethod="pad" x1="2.2664952043135242" y1="20.200740868926044" x2="28.19249528753038" y2="20.200740868926044"><stop offset="0.0" stop-color="#e06666"/><stop offset="1.0" stop-color="#93c47d"/></linearGradient></defs><path fill="url(#p.1)" d="m58.761154 464.95276l632.9764 0l0 -19.590546l39.18109 39.18109l-39.18109 39.18112l0 -19.590576l-632.9764 0z" fill-rule="evenodd"/><path fill="#ffffff" d="m310.55347 491.46332l-2.8125 0l0 -10.96875l-3.625 0l0 -2.359375l10.046875 0l0 2.359375l-3.609375 0l0 10.96875zm10.196777 -10.375q0.203125 0 0.484375 0.03125q0.28125 0.015625 0.453125 0.046875l-0.203125 2.609375q-0.125 -0.03125 -0.390625 -0.0625q-0.25 -0.03125 -0.4375 -0.03125q-0.53125 0 -1.046875 0.140625q-0.5 0.140625 -0.90625 0.4375q-0.390625 0.296875 -0.625 0.796875q-0.234375 0.5 -0.234375 1.21875l0 5.1875l-2.78125 0l0 -10.1875l2.109375 0l0.40625 1.71875l0.140625 0q0.296875 -0.53125 0.734375 -0.953125q0.453125 -0.421875 1.03125 -0.6875q0.59375 -0.265625 1.265625 -0.265625zm12.12616 0.1875l0 10.1875l-2.125 0l-0.375 -1.3125l-0.140625 0q-0.328125 0.53125 -0.828125 0.859375q-0.484375 0.328125 -1.078125 0.484375q-0.59375 0.15625 -1.234375 0.15625q-1.078125 0 -1.90625 -0.390625q-0.8125 -0.390625 -1.265625 -1.203125q-0.4375 -0.828125 -0.4375 -2.140625l0 -6.640625l2.765625 0l0 5.953125q0 1.078125 0.390625 1.640625q0.40625 0.5625 1.265625 0.5625q0.84375 0 1.3125 -0.390625q0.484375 -0.390625 0.671875 -1.140625q0.203125 -0.75 0.203125 -1.828125l0 -4.796875l2.78125 0zm10.022797 7.171875q0 1.015625 -0.484375 1.734375q-0.484375 0.71875 -1.453125 1.09375q-0.96875 0.375 -2.40625 0.375q-1.0625 0 -1.828125 -0.140625q-0.765625 -0.140625 -1.53125 -0.453125l0 -2.296875q0.8125 0.375 1.765625 0.625q0.953125 0.234375 1.6875 0.234375q0.8125 0 1.15625 -0.234375q0.359375 -0.25 0.359375 -0.640625q0 -0.265625 -0.140625 -0.46875q-0.140625 -0.203125 -0.609375 -0.46875q-0.46875 -0.265625 -1.453125 -0.671875q-0.953125 -0.40625 -1.578125 -0.8125q-0.609375 -0.40625 -0.90625 -0.96875q-0.296875 -0.5625 -0.296875 -1.421875q0 -1.421875 1.09375 -2.125q1.109375 -0.71875 2.9375 -0.71875q0.953125 0 1.796875 0.1875q0.859375 0.1875 1.78125 0.609375l-0.84375 2.0q-0.75 -0.3125 -1.421875 -0.53125q-0.671875 -0.21875 -1.359375 -0.21875q-0.609375 0 -0.921875 0.171875q-0.3125 0.171875 -0.3125 0.5q0 0.25 0.15625 0.453125q0.171875 0.1875 0.625 0.421875q0.453125 0.21875 1.359375 0.59375q0.875 0.34375 1.5 0.734375q0.640625 0.375 0.984375 0.953125q0.34375 0.5625 0.34375 1.484375zm6.459656 0.984375q0.46875 0 0.890625 -0.09375q0.4375 -0.09375 0.859375 -0.21875l0 2.0625q-0.453125 0.1875 -1.109375 0.328125q-0.65625 0.140625 -1.453125 0.140625q-0.90625 0 -1.625 -0.296875q-0.71875 -0.296875 -1.140625 -1.03125q-0.421875 -0.75 -0.421875 -2.046875l0 -4.90625l-1.328125 0l0 -1.171875l1.53125 -0.9375l0.8125 -2.140625l1.765625 0l0 2.15625l2.859375 0l0 2.09375l-2.859375 0l0 4.90625q0 0.578125 0.328125 0.875q0.34375 0.28125 0.890625 0.28125zm12.838074 -8.359375q2.046875 0 3.140625 0.890625q1.09375 0.875 1.09375 2.703125l0 6.796875l-1.953125 0l-0.53125 -1.375l-0.078125 0q-0.421875 0.53125 -0.890625 0.890625q-0.453125 0.359375 -1.046875 0.515625q-0.578125 0.15625 -1.4375 0.15625q-0.890625 0 -1.609375 -0.34375q-0.71875 -0.34375 -1.140625 -1.0625q-0.40625 -0.71875 -0.40625 -1.828125q0 -1.625 1.140625 -2.390625q1.140625 -0.78125 3.40625 -0.84375l1.78125 -0.0625l0 -0.453125q0 -0.796875 -0.421875 -1.171875q-0.421875 -0.375 -1.171875 -0.375q-0.734375 0 -1.453125 0.21875q-0.703125 0.21875 -1.40625 0.53125l-0.921875 -1.890625q0.828125 -0.421875 1.8125 -0.65625q1.0 -0.25 2.09375 -0.25zm0.390625 5.703125q-1.34375 0.046875 -1.875 0.5q-0.515625 0.4375 -0.515625 1.171875q0 0.625 0.375 0.90625q0.375 0.265625 0.96875 0.265625q0.890625 0 1.5 -0.53125q0.625 -0.53125 0.625 -1.5l0 -0.84375l-1.078125 0.03125zm13.799622 1.671875q0 1.015625 -0.484375 1.734375q-0.484375 0.71875 -1.453125 1.09375q-0.96875 0.375 -2.40625 0.375q-1.0625 0 -1.828125 -0.140625q-0.765625 -0.140625 -1.53125 -0.453125l0 -2.296875q0.8125 0.375 1.765625 0.625q0.953125 0.234375 1.6875 0.234375q0.8125 0 1.15625 -0.234375q0.359375 -0.25 0.359375 -0.640625q0 -0.265625 -0.140625 -0.46875q-0.140625 -0.203125 -0.609375 -0.46875q-0.46875 -0.265625 -1.453125 -0.671875q-0.953125 -0.40625 -1.578125 -0.8125q-0.609375 -0.40625 -0.90625 -0.96875q-0.296875 -0.5625 -0.296875 -1.421875q0 -1.421875 1.09375 -2.125q1.109375 -0.71875 2.9375 -0.71875q0.953125 0 1.796875 0.1875q0.859375 0.1875 1.78125 0.609375l-0.84375 2.0q-0.75 -0.3125 -1.421875 -0.53125q-0.671875 -0.21875 -1.359375 -0.21875q-0.609375 0 -0.921875 0.171875q-0.3125 0.171875 -0.3125 0.5q0 0.25 0.15625 0.453125q0.171875 0.1875 0.625 0.421875q0.453125 0.21875 1.359375 0.59375q0.875 0.34375 1.5 0.734375q0.640625 0.375 0.984375 0.953125q0.34375 0.5625 0.34375 1.484375zm9.272156 0q0 1.015625 -0.484375 1.734375q-0.484375 0.71875 -1.453125 1.09375q-0.96875 0.375 -2.40625 0.375q-1.0625 0 -1.828125 -0.140625q-0.765625 -0.140625 -1.53125 -0.453125l0 -2.296875q0.8125 0.375 1.765625 0.625q0.953125 0.234375 1.6875 0.234375q0.8125 0 1.15625 -0.234375q0.359375 -0.25 0.359375 -0.640625q0 -0.265625 -0.140625 -0.46875q-0.140625 -0.203125 -0.609375 -0.46875q-0.46875 -0.265625 -1.453125 -0.671875q-0.953125 -0.40625 -1.578125 -0.8125q-0.609375 -0.40625 -0.90625 -0.96875q-0.296875 -0.5625 -0.296875 -1.421875q0 -1.421875 1.09375 -2.125q1.109375 -0.71875 2.9375 -0.71875q0.953125 0 1.796875 0.1875q0.859375 0.1875 1.78125 0.609375l-0.84375 2.0q-0.75 -0.3125 -1.421875 -0.53125q-0.671875 -0.21875 -1.359375 -0.21875q-0.609375 0 -0.921875 0.171875q-0.3125 0.171875 -0.3125 0.5q0 0.25 0.15625 0.453125q0.171875 0.1875 0.625 0.421875q0.453125 0.21875 1.359375 0.59375q0.875 0.34375 1.5 0.734375q0.640625 0.375 0.984375 0.953125q0.34375 0.5625 0.34375 1.484375zm11.506531 -7.171875l0 10.1875l-2.125 0l-0.375 -1.3125l-0.140625 0q-0.328125 0.53125 -0.828125 0.859375q-0.484375 0.328125 -1.078125 0.484375q-0.59375 0.15625 -1.234375 0.15625q-1.078125 0 -1.90625 -0.390625q-0.8125 -0.390625 -1.265625 -1.203125q-0.4375 -0.828125 -0.4375 -2.140625l0 -6.640625l2.765625 0l0 5.953125q0 1.078125 0.390625 1.640625q0.40625 0.5625 1.265625 0.5625q0.84375 0 1.3125 -0.390625q0.484375 -0.390625 0.671875 -1.140625q0.203125 -0.75 0.203125 -1.828125l0 -4.796875l2.78125 0zm14.866547 -0.1875q1.75 0 2.625 0.890625q0.890625 0.890625 0.890625 2.84375l0 6.640625l-2.78125 0l0 -5.953125q0 -1.09375 -0.375 -1.640625q-0.375 -0.5625 -1.15625 -0.5625q-1.09375 0 -1.5625 0.796875q-0.46875 0.78125 -0.46875 2.25l0 5.109375l-2.78125 0l0 -5.953125q0 -0.71875 -0.171875 -1.203125q-0.15625 -0.5 -0.5 -0.75q-0.328125 -0.25 -0.859375 -0.25q-0.765625 0 -1.21875 0.390625q-0.4375 0.390625 -0.625 1.140625q-0.1875 0.75 -0.1875 1.828125l0 4.796875l-2.78125 0l0 -10.1875l2.125 0l0.375 1.3125l0.15625 0q0.3125 -0.53125 0.78125 -0.859375q0.46875 -0.328125 1.03125 -0.484375q0.578125 -0.15625 1.15625 -0.15625q1.109375 0 1.890625 0.375q0.78125 0.359375 1.203125 1.125l0.234375 0q0.46875 -0.78125 1.296875 -1.140625q0.828125 -0.359375 1.703125 -0.359375zm12.039185 0q1.71875 0 2.78125 1.34375q1.0625 1.328125 1.0625 3.921875q0 1.734375 -0.5 2.921875q-0.5 1.1875 -1.390625 1.78125q-0.875 0.59375 -2.03125 0.59375q-0.71875 0 -1.25 -0.1875q-0.53125 -0.1875 -0.90625 -0.484375q-0.375 -0.296875 -0.65625 -0.640625l-0.15625 0q0.078125 0.359375 0.109375 0.75q0.046875 0.375 0.046875 0.75l0 4.109375l-2.78125 0l0 -14.671875l2.265625 0l0.390625 1.328125l0.125 0q0.28125 -0.40625 0.671875 -0.75q0.390625 -0.359375 0.9375 -0.5625q0.5625 -0.203125 1.28125 -0.203125zm-0.890625 2.21875q-0.734375 0 -1.171875 0.296875q-0.421875 0.296875 -0.625 0.90625q-0.1875 0.609375 -0.203125 1.53125l0 0.296875q0 0.984375 0.1875 1.671875q0.1875 0.671875 0.625 1.03125q0.453125 0.34375 1.21875 0.34375q0.640625 0 1.046875 -0.34375q0.40625 -0.359375 0.609375 -1.046875q0.21875 -0.6875 0.21875 -1.6875q0 -1.484375 -0.46875 -2.234375q-0.453125 -0.765625 -1.4375 -0.765625zm11.325012 6.125q0.46875 0 0.890625 -0.09375q0.4375 -0.09375 0.859375 -0.21875l0 2.0625q-0.453125 0.1875 -1.109375 0.328125q-0.65625 0.140625 -1.453125 0.140625q-0.90625 0 -1.625 -0.296875q-0.71875 -0.296875 -1.140625 -1.03125q-0.421875 -0.75 -0.421875 -2.046875l0 -4.90625l-1.328125 0l0 -1.171875l1.53125 -0.9375l0.8125 -2.140625l1.765625 0l0 2.15625l2.859375 0l0 2.09375l-2.859375 0l0 4.90625q0 0.578125 0.328125 0.875q0.34375 0.28125 0.890625 0.28125zm6.5811768 -8.15625l0 10.1875l-2.78125 0l0 -10.1875l2.78125 0zm-1.375 -3.984375q0.609375 0 1.046875 0.296875q0.453125 0.28125 0.453125 1.0625q0 0.765625 -0.453125 1.0625q-0.4375 0.296875 -1.046875 0.296875q-0.640625 0 -1.078125 -0.296875q-0.4375 -0.296875 -0.4375 -1.0625q0 -0.78125 0.4375 -1.0625q0.4375 -0.296875 1.078125 -0.296875zm13.533936 9.0625q0 1.265625 -0.34375 2.265625q-0.34375 0.984375 -0.984375 1.671875q-0.640625 0.671875 -1.5625 1.015625q-0.90625 0.34375 -2.0625 0.34375q-1.0625 0 -1.96875 -0.34375q-0.90625 -0.34375 -1.5625 -1.015625q-0.65625 -0.6875 -1.015625 -1.671875q-0.359375 -1.0 -0.359375 -2.265625q0 -1.703125 0.59375 -2.859375q0.59375 -1.171875 1.703125 -1.78125q1.125 -0.625 2.65625 -0.625q1.4375 0 2.53125 0.625q1.109375 0.609375 1.734375 1.78125q0.640625 1.15625 0.640625 2.859375zm-7.03125 0q0 1.0 0.21875 1.6875q0.21875 0.671875 0.671875 1.03125q0.46875 0.34375 1.21875 0.34375q0.75 0 1.203125 -0.34375q0.453125 -0.359375 0.671875 -1.03125q0.21875 -0.6875 0.21875 -1.6875q0 -1.015625 -0.21875 -1.6875q-0.21875 -0.671875 -0.6875 -1.0q-0.453125 -0.34375 -1.203125 -0.34375q-1.09375 0 -1.59375 0.765625q-0.5 0.75 -0.5 2.265625zm15.110718 -5.265625q1.640625 0 2.625 0.890625q1.0 0.890625 1.0 2.84375l0 6.640625l-2.78125 0l0 -5.953125q0 -1.09375 -0.390625 -1.640625q-0.390625 -0.5625 -1.25 -0.5625q-1.265625 0 -1.734375 0.875q-0.46875 0.859375 -0.46875 2.484375l0 4.796875l-2.78125 0l0 -10.1875l2.125 0l0.375 1.3125l0.15625 0q0.328125 -0.53125 0.8125 -0.859375q0.484375 -0.328125 1.078125 -0.484375q0.609375 -0.15625 1.234375 -0.15625z" fill-rule="nonzero"/><defs><linearGradient id="p.2" gradientUnits="userSpaceOnUse" gradientTransform="matrix(0.0 -17.659955145697047 17.659955145697047 0.0 0.0 0.0)" spreadMethod="pad" x1="-28.40047876478147" y1="6.639872046801665" x2="-10.740523619084428" y2="6.639872046801665"><stop offset="0.0" stop-color="#e06666"/><stop offset="1.0" stop-color="#93c47d"/></linearGradient></defs><path fill="url(#p.2)" d="m58.48819 501.55118l0 -272.69293l-19.590553 0l39.181107 -39.18109l39.1811 39.18109l-19.590553 0l0 272.69293z" fill-rule="evenodd"/><path fill="#ffffff" d="m81.31124 431.07196q1.171875 0 2.046875 0.578125q0.875 0.578125 1.359375 1.671875q0.46875 1.09375 0.46875 2.65625q0 0.6875 -0.09375 1.359375q-0.09375 0.65625 -0.265625 1.265625q-0.1875 0.59375 -0.4375 1.140625l-2.640625 0q0.421875 -0.953125 0.765625 -1.96875q0.34375 -1.015625 0.34375 -2.015625q0 -0.703125 -0.1875 -1.109375q-0.1875 -0.421875 -0.5 -0.609375q-0.328125 -0.203125 -0.734375 -0.203125q-0.5 0 -0.859375 0.34375q-0.359375 0.34375 -0.65625 0.921875q-0.3125 0.578125 -0.671875 1.328125q-0.21875 0.453125 -0.515625 1.0q-0.3125 0.546875 -0.765625 1.046875q-0.46875 0.484375 -1.125 0.8125q-0.65625 0.3125 -1.5625 0.3125q-1.1875 0 -2.03125 -0.546875q-0.859375 -0.5625 -1.296875 -1.578125q-0.453125 -1.015625 -0.453125 -2.390625q0 -1.046875 0.25 -1.984375q0.234375 -0.953125 0.671875 -1.984375l2.203125 0.921875q-0.375 0.90625 -0.578125 1.640625q-0.203125 0.734375 -0.203125 1.5q0 0.515625 0.171875 0.890625q0.15625 0.375 0.46875 0.578125q0.296875 0.1875 0.703125 0.1875q0.46875 0 0.796875 -0.28125q0.328125 -0.28125 0.625 -0.84375q0.296875 -0.5625 0.703125 -1.390625q0.484375 -1.03125 1.015625 -1.75q0.515625 -0.71875 1.234375 -1.109375q0.703125 -0.390625 1.75 -0.390625zm-6.6875 -6.404602q0 -1.421875 0.546875 -2.4375q0.53125 -1.015625 1.5625 -1.5625q1.03125 -0.5625 2.515625 -0.5625l1.34375 0l0 6.5625q1.171875 -0.03125 1.84375 -0.6875q0.671875 -0.671875 0.671875 -1.84375q0 -1.0 -0.1875 -1.796875q-0.203125 -0.796875 -0.609375 -1.65625l2.140625 0q0.375 0.734375 0.546875 1.578125q0.1875 0.828125 0.1875 2.0q0 1.53125 -0.5625 2.703125q-0.578125 1.171875 -1.734375 1.84375q-1.15625 0.671875 -2.90625 0.671875q-1.796875 0 -2.96875 -0.59375q-1.1875 -0.609375 -1.78125 -1.6875q-0.609375 -1.09375 -0.609375 -2.53125zm1.984375 -0.015625q0 0.796875 0.53125 1.328125q0.515625 0.53125 1.609375 0.625l0 -3.890625q-0.609375 0 -1.09375 0.21875q-0.484375 0.203125 -0.765625 0.640625q-0.28125 0.421875 -0.28125 1.078125zm-1.984375 -12.588348q0 -1.640625 0.890625 -2.625q0.890625 -1.0 2.84375 -1.0l6.640625 0l0 2.78125l-5.953125 0q-1.09375 0 -1.640625 0.390625q-0.5625 0.390625 -0.5625 1.25q0 1.265625 0.875 1.734375q0.859375 0.46875 2.484375 0.46875l4.796875 0l0 2.78125l-10.1875 0l0 -2.125l1.3125 -0.375l0 -0.15625q-0.53125 -0.328125 -0.859375 -0.8125q-0.328125 -0.484375 -0.484375 -1.078125q-0.15625 -0.609375 -0.15625 -1.234375zm10.5625 -9.710266q0 1.703125 -1.328125 2.78125q-1.34375 1.0625 -3.9375 1.0625q-2.609375 0 -3.953125 -1.078125q-1.34375 -1.078125 -1.34375 -2.828125q0 -0.734375 0.203125 -1.296875q0.1875 -0.5625 0.53125 -0.953125q0.328125 -0.40625 0.765625 -0.6875l0 -0.09375q-0.296875 0.0625 -0.859375 0.140625q-0.578125 0.0625 -1.171875 0.0625l-3.265625 0l0 -2.78125l14.171875 0l0 2.125l-1.328125 0.546875l0 0.109375q0.40625 0.265625 0.765625 0.671875q0.34375 0.390625 0.546875 0.9375q0.203125 0.546875 0.203125 1.28125zm-2.21875 -0.96875q0 -1.15625 -0.671875 -1.625q-0.6875 -0.46875 -2.046875 -0.484375l-0.3125 0q-1.484375 0 -2.265625 0.46875q-0.78125 0.453125 -0.78125 1.6875q0 0.90625 0.796875 1.4375q0.78125 0.515625 2.28125 0.515625q1.484375 0 2.25 -0.515625q0.75 -0.53125 0.75 -1.484375zm-8.34375 -11.809418q0 -1.421875 0.546875 -2.4375q0.53125 -1.015625 1.5625 -1.5625q1.03125 -0.5625 2.515625 -0.5625l1.34375 0l0 6.5625q1.171875 -0.03125 1.84375 -0.6875q0.671875 -0.671875 0.671875 -1.84375q0 -1.0 -0.1875 -1.796875q-0.203125 -0.796875 -0.609375 -1.65625l2.140625 0q0.375 0.734375 0.546875 1.578125q0.1875 0.828125 0.1875 2.0q0 1.53125 -0.5625 2.703125q-0.578125 1.171875 -1.734375 1.84375q-1.15625 0.671875 -2.90625 0.671875q-1.796875 0 -2.96875 -0.59375q-1.1875 -0.609375 -1.78125 -1.6875q-0.609375 -1.09375 -0.609375 -2.53125zm1.984375 -0.015625q0 0.796875 0.53125 1.328125q0.515625 0.53125 1.609375 0.625l0 -3.890625q-0.609375 0 -1.09375 0.21875q-0.484375 0.203125 -0.765625 0.640625q-0.28125 0.421875 -0.28125 1.078125zm-1.984375 -12.494598q0 -0.203125 0.03125 -0.484375q0.015625 -0.28125 0.046875 -0.453125l2.609375 0.203125q-0.03125 0.125 -0.0625 0.390625q-0.03125 0.25 -0.03125 0.4375q0 0.53125 0.140625 1.046875q0.140625 0.5 0.4375 0.90625q0.296875 0.390625 0.796875 0.625q0.5 0.234375 1.21875 0.234375l5.1875 0l0 2.78125l-10.1875 0l0 -2.109375l1.71875 -0.40625l0 -0.140625q-0.53125 -0.296875 -0.953125 -0.734375q-0.421875 -0.453125 -0.6875 -1.03125q-0.265625 -0.59375 -0.265625 -1.265625zm-0.015625 -11.820557q0 -2.046875 0.890625 -3.140625q0.875 -1.09375 2.703125 -1.09375l6.796875 0l0 1.953125l-1.375 0.53125l0 0.078125q0.53125 0.421875 0.890625 0.890625q0.359375 0.453125 0.515625 1.046875q0.15625 0.578125 0.15625 1.4375q0 0.890625 -0.34375 1.609375q-0.34375 0.71875 -1.0625 1.140625q-0.71875 0.40625 -1.828125 0.40625q-1.625 0 -2.390625 -1.140625q-0.78125 -1.140625 -0.84375 -3.40625l-0.0625 -1.78125l-0.453125 0q-0.796875 0 -1.171875 0.421875q-0.375 0.421875 -0.375 1.171875q0 0.734375 0.21875 1.453125q0.21875 0.703125 0.53125 1.40625l-1.890625 0.921875q-0.421875 -0.828125 -0.65625 -1.8125q-0.25 -1.0 -0.25 -2.09375zm5.703125 -0.390625q0.046875 1.34375 0.5 1.875q0.4375 0.515625 1.171875 0.515625q0.625 0 0.90625 -0.375q0.265625 -0.375 0.265625 -0.96875q0 -0.890625 -0.53125 -1.5q-0.53125 -0.625 -1.5 -0.625l-0.84375 0l0.03125 1.078125zm-5.6875 -12.471497q0 -1.640625 0.890625 -2.625q0.890625 -1.0 2.84375 -1.0l6.640625 0l0 2.78125l-5.953125 0q-1.09375 0 -1.640625 0.390625q-0.5625 0.390625 -0.5625 1.25q0 1.265625 0.875 1.734375q0.859375 0.46875 2.484375 0.46875l4.796875 0l0 2.78125l-10.1875 0l0 -2.125l1.3125 -0.375l0 -0.15625q-0.53125 -0.328125 -0.859375 -0.8125q-0.328125 -0.484375 -0.484375 -1.078125q-0.15625 -0.609375 -0.15625 -1.234375zm5.265625 -15.725922q1.265625 0 2.265625 0.34375q0.984375 0.34375 1.671875 0.984375q0.671875 0.640625 1.015625 1.5625q0.34375 0.90625 0.34375 2.0625q0 1.0625 -0.34375 1.96875q-0.34375 0.90625 -1.015625 1.5625q-0.6875 0.65625 -1.671875 1.015625q-1.0 0.359375 -2.265625 0.359375q-1.703125 0 -2.859375 -0.59375q-1.171875 -0.59375 -1.78125 -1.703125q-0.625 -1.125 -0.625 -2.65625q0 -1.4375 0.625 -2.53125q0.609375 -1.109375 1.78125 -1.734375q1.15625 -0.640625 2.859375 -0.640625zm0 7.03125q1.0 0 1.6875 -0.21875q0.671875 -0.21875 1.03125 -0.671875q0.34375 -0.46875 0.34375 -1.21875q0 -0.75 -0.34375 -1.203125q-0.359375 -0.453125 -1.03125 -0.671875q-0.6875 -0.21875 -1.6875 -0.21875q-1.015625 0 -1.6875 0.21875q-0.671875 0.21875 -1.0 0.6875q-0.34375 0.453125 -0.34375 1.203125q0 1.09375 0.765625 1.59375q0.75 0.5 2.265625 0.5zm-5.265625 -15.110718q0 -1.640625 0.890625 -2.625q0.890625 -1.0 2.84375 -1.0l6.640625 0l0 2.78125l-5.953125 0q-1.09375 0 -1.640625 0.390625q-0.5625 0.390625 -0.5625 1.25q0 1.265625 0.875 1.734375q0.859375 0.46875 2.484375 0.46875l4.796875 0l0 2.78125l-10.1875 0l0 -2.125l1.3125 -0.375l0 -0.15625q-0.53125 -0.328125 -0.859375 -0.8125q-0.328125 -0.484375 -0.484375 -1.078125q-0.15625 -0.609375 -0.15625 -1.234375zm0.1875 -5.022766l0 -3.046875l5.734375 -1.921875q0.28125 -0.09375 0.5625 -0.15625q0.265625 -0.0625 0.578125 -0.109375q0.296875 -0.046875 0.625 -0.0625l0 -0.0625q-0.484375 -0.046875 -0.921875 -0.140625q-0.4375 -0.109375 -0.84375 -0.25l-5.734375 -1.875l0 -2.984375l11.5 4.296875q1.03125 0.40625 1.734375 1.03125q0.71875 0.609375 1.078125 1.4375q0.359375 0.828125 0.359375 1.796875q0 0.46875 -0.046875 0.8125q-0.046875 0.34375 -0.109375 0.59375l-2.203125 0q0.046875 -0.203125 0.078125 -0.484375q0.03125 -0.296875 0.03125 -0.609375q0 -0.578125 -0.25 -1.0q-0.234375 -0.421875 -0.65625 -0.703125q-0.40625 -0.28125 -0.90625 -0.4375l-0.5 -0.171875l-10.109375 4.046875zm-0.1875 -24.021667q0 -1.75 0.890625 -2.625q0.890625 -0.890625 2.84375 -0.890625l6.640625 0l0 2.78125l-5.953125 0q-1.09375 0 -1.640625 0.375q-0.5625 0.375 -0.5625 1.15625q0 1.09375 0.796875 1.5625q0.78125 0.46875 2.25 0.46875l5.109375 0l0 2.78125l-5.953125 0q-0.71875 0 -1.203125 0.171875q-0.5 0.15625 -0.75 0.5q-0.25 0.328125 -0.25 0.859375q0 0.765625 0.390625 1.21875q0.390625 0.4375 1.140625 0.625q0.75 0.1875 1.828125 0.1875l4.796875 0l0 2.78125l-10.1875 0l0 -2.125l1.3125 -0.375l0 -0.15625q-0.53125 -0.3125 -0.859375 -0.78125q-0.328125 -0.46875 -0.484375 -1.03125q-0.15625 -0.578125 -0.15625 -1.15625q0 -1.109375 0.375 -1.890625q0.359375 -0.78125 1.125 -1.203125l0 -0.234375q-0.78125 -0.46875 -1.140625 -1.296875q-0.359375 -0.828125 -0.359375 -1.703125zm0.1875 -9.14856l10.1875 0l0 2.78125l-10.1875 0l0 -2.78125zm-3.984375 1.375q0 -0.609375 0.296875 -1.046875q0.28125 -0.453125 1.0625 -0.453125q0.765625 0 1.0625 0.453125q0.296875 0.4375 0.296875 1.046875q0 0.640625 -0.296875 1.078125q-0.296875 0.4375 -1.0625 0.4375q-0.78125 0 -1.0625 -0.4375q-0.296875 -0.4375 -0.296875 -1.078125zm12.140625 -8.58078q0 -0.46875 -0.09375 -0.890625q-0.09375 -0.4375 -0.21875 -0.859375l2.0625 0q0.1875 0.453125 0.328125 1.109375q0.140625 0.65625 0.140625 1.453125q0 0.90625 -0.296875 1.625q-0.296875 0.71875 -1.03125 1.140625q-0.75 0.421875 -2.046875 0.421875l-4.90625 0l0 1.328125l-1.171875 0l-0.9375 -1.53125l-2.140625 -0.8125l0 -1.765625l2.15625 0l0 -2.859375l2.09375 0l0 2.859375l4.90625 0q0.578125 0 0.875 -0.328125q0.28125 -0.34375 0.28125 -0.890625zm-8.15625 -2.3468018l0 -3.046875l5.734375 -1.921875q0.28125 -0.09375 0.5625 -0.15625q0.265625 -0.0625 0.578125 -0.109375q0.296875 -0.046875 0.625 -0.0625l0 -0.0625q-0.484375 -0.046875 -0.921875 -0.140625q-0.4375 -0.109375 -0.84375 -0.25l-5.734375 -1.875l0 -2.984375l11.5 4.296875q1.03125 0.40625 1.734375 1.03125q0.71875 0.609375 1.078125 1.4375q0.359375 0.828125 0.359375 1.796875q0 0.46875 -0.046875 0.8125q-0.046875 0.34375 -0.109375 0.59375l-2.203125 0q0.046875 -0.203125 0.078125 -0.484375q0.03125 -0.296875 0.03125 -0.609375q0 -0.578125 -0.25 -1.0q-0.234375 -0.421875 -0.65625 -0.703125q-0.40625 -0.28125 -0.90625 -0.4375l-0.5 -0.171875l-10.109375 4.046875z" fill-rule="nonzero"/><path fill="#e69138" d="m129.62993 217.10498l0 0c0 -3.1832428 2.5382233 -5.7637787 5.669281 -5.7637787l0 0c1.5035858 0 2.9456024 0.607254 4.0088043 1.6881714c1.0631866 1.0809174 1.660492 2.5469666 1.660492 4.0756073l0 0c0 3.183258 -2.5382233 5.7637787 -5.6692963 5.7637787l0 0c-3.1310577 0 -5.669281 -2.5805206 -5.669281 -5.7637787z" fill-rule="evenodd"/><path fill="#000000" fill-opacity="0.0" d="m109.020996 222.86876l102.04724 0l0 24.913391l-102.04724 0z" fill-rule="evenodd"/><path fill="#000000" d="m123.63037 228.71733q2.5 0 3.78125 0.75q1.28125 0.734375 1.28125 2.5625q0 0.78125 -0.296875 1.390625q-0.28125 0.609375 -0.859375 1.015625q-0.5625 0.390625 -1.375 0.53125l0 0.09375q0.828125 0.140625 1.5 0.5q0.6875 0.34375 1.078125 1.0q0.40625 0.65625 0.40625 1.703125q0 1.203125 -0.5625 2.0625q-0.5625 0.84375 -1.609375 1.28125q-1.03125 0.4375 -2.453125 0.4375l-4.6875 0l0 -13.328125l3.796875 0zm0.34375 5.671875q1.71875 0 2.34375 -0.546875q0.640625 -0.546875 0.640625 -1.625q0 -1.109375 -0.78125 -1.578125q-0.765625 -0.484375 -2.46875 -0.484375l-2.203125 0l0 4.234375l2.46875 0zm-2.46875 1.40625l0 4.828125l2.6875 0q1.78125 0 2.46875 -0.6875q0.6875 -0.6875 0.6875 -1.8125q0 -0.703125 -0.3125 -1.21875q-0.296875 -0.53125 -1.015625 -0.8125q-0.71875 -0.296875 -1.953125 -0.296875l-2.5625 0zm14.017197 -3.921875q1.828125 0 2.703125 0.8125q0.875 0.796875 0.875 2.546875l0 6.8125l-1.1875 0l-0.328125 -1.421875l-0.0625 0q-0.4375 0.546875 -0.890625 0.90625q-0.453125 0.359375 -1.046875 0.53125q-0.59375 0.171875 -1.421875 0.171875q-0.90625 0 -1.625 -0.3125q-0.71875 -0.328125 -1.125 -0.984375q-0.40625 -0.65625 -0.40625 -1.671875q0 -1.484375 1.171875 -2.296875q1.171875 -0.8125 3.625 -0.890625l1.6875 -0.0625l0 -0.59375q0 -1.25 -0.546875 -1.734375q-0.53125 -0.484375 -1.515625 -0.484375q-0.78125 0 -1.5 0.234375q-0.703125 0.234375 -1.3125 0.53125l-0.515625 -1.234375q0.65625 -0.34375 1.546875 -0.59375q0.90625 -0.265625 1.875 -0.265625zm0.484375 5.34375q-1.859375 0.078125 -2.578125 0.59375q-0.71875 0.515625 -0.71875 1.46875q0 0.84375 0.5 1.234375q0.515625 0.390625 1.328125 0.390625q1.265625 0 2.09375 -0.6875q0.84375 -0.703125 0.84375 -2.171875l0 -0.890625l-1.46875 0.0625zm12.700531 2.0625q0 0.96875 -0.484375 1.625q-0.484375 0.65625 -1.390625 1.0q-0.890625 0.328125 -2.109375 0.328125q-1.046875 0 -1.8125 -0.171875q-0.75 -0.171875 -1.328125 -0.46875l0 -1.484375q0.59375 0.296875 1.4375 0.546875q0.859375 0.25 1.734375 0.25q1.25 0 1.8125 -0.390625q0.5625 -0.40625 0.5625 -1.078125q0 -0.375 -0.21875 -0.671875q-0.203125 -0.296875 -0.734375 -0.59375q-0.53125 -0.296875 -1.515625 -0.671875q-0.96875 -0.375 -1.65625 -0.75q-0.6875 -0.375 -1.0625 -0.890625q-0.375 -0.53125 -0.375 -1.34375q0 -1.28125 1.03125 -1.96875q1.03125 -0.6875 2.71875 -0.6875q0.90625 0 1.703125 0.1875q0.796875 0.171875 1.484375 0.484375l-0.5625 1.3125q-0.625 -0.265625 -1.328125 -0.453125q-0.6875 -0.1875 -1.40625 -0.1875q-1.015625 0 -1.546875 0.328125q-0.53125 0.328125 -0.53125 0.890625q0 0.40625 0.234375 0.703125q0.25 0.28125 0.8125 0.5625q0.578125 0.265625 1.53125 0.625q0.953125 0.359375 1.625 0.734375q0.671875 0.375 1.015625 0.90625q0.359375 0.53125 0.359375 1.328125zm4.0769653 -7.234375l0 10.0l-1.65625 0l0 -10.0l1.65625 0zm-0.8125 -3.75q0.375 0 0.65625 0.25q0.296875 0.25 0.296875 0.796875q0 0.515625 -0.296875 0.78125q-0.28125 0.265625 -0.65625 0.265625q-0.40625 0 -0.6875 -0.265625q-0.28125 -0.265625 -0.28125 -0.78125q0 -0.546875 0.28125 -0.796875q0.28125 -0.25 0.6875 -0.25zm7.9851837 13.9375q-1.328125 0 -2.359375 -0.53125q-1.03125 -0.546875 -1.625 -1.6875q-0.578125 -1.140625 -0.578125 -2.90625q0 -1.859375 0.609375 -3.015625q0.609375 -1.15625 1.65625 -1.6875q1.0625 -0.546875 2.40625 -0.546875q0.765625 0 1.46875 0.15625q0.71875 0.15625 1.171875 0.390625l-0.515625 1.359375q-0.4375 -0.171875 -1.046875 -0.3125q-0.59375 -0.15625 -1.109375 -0.15625q-1.0 0 -1.65625 0.4375q-0.65625 0.421875 -0.984375 1.265625q-0.3125 0.828125 -0.3125 2.078125q0 1.203125 0.3125 2.046875q0.328125 0.828125 0.953125 1.265625q0.640625 0.421875 1.59375 0.421875q0.828125 0 1.453125 -0.15625q0.625 -0.171875 1.140625 -0.421875l0 1.453125q-0.5 0.265625 -1.109375 0.40625q-0.609375 0.140625 -1.46875 0.140625zm13.774384 -0.1875l-4.8125 0l0 -0.96875l1.5625 -0.359375l0 -10.65625l-1.5625 -0.359375l0 -0.984375l4.8125 0l0 0.984375l-1.5625 0.359375l0 10.65625l1.5625 0.359375l0 0.96875zm6.371338 -13.328125q2.5 0 3.78125 0.75q1.28125 0.734375 1.28125 2.5625q0 0.78125 -0.296875 1.390625q-0.28125 0.609375 -0.859375 1.015625q-0.5625 0.390625 -1.375 0.53125l0 0.09375q0.828125 0.140625 1.5 0.5q0.6875 0.34375 1.078125 1.0q0.40625 0.65625 0.40625 1.703125q0 1.203125 -0.5625 2.0625q-0.5625 0.84375 -1.609375 1.28125q-1.03125 0.4375 -2.453125 0.4375l-4.6875 0l0 -13.328125l3.796875 0zm0.34375 5.671875q1.71875 0 2.34375 -0.546875q0.640625 -0.546875 0.640625 -1.625q0 -1.109375 -0.78125 -1.578125q-0.765625 -0.484375 -2.46875 -0.484375l-2.203125 0l0 4.234375l2.46875 0zm-2.46875 1.40625l0 4.828125l2.6875 0q1.78125 0 2.46875 -0.6875q0.6875 -0.6875 0.6875 -1.8125q0 -0.703125 -0.3125 -1.21875q-0.296875 -0.53125 -1.015625 -0.8125q-0.71875 -0.296875 -1.953125 -0.296875l-2.5625 0zm17.892197 6.25l-7.4375 0l0 -13.328125l7.4375 0l0 1.484375l-5.765625 0l0 4.15625l5.4375 0l0 1.453125l-5.4375 0l0 4.765625l5.765625 0l0 1.46875z" fill-rule="nonzero"/><path fill="#ffd966" d="m346.6614 217.10498l0 0c0 -3.1832428 2.5382385 -5.7637787 5.6693115 -5.7637787l0 0c1.5035706 0 2.9455872 0.607254 4.008789 1.6881714c1.0632019 1.0809174 1.660492 2.5469666 1.660492 4.0756073l0 0c0 3.183258 -2.5382385 5.7637787 -5.669281 5.7637787l0 0c-3.131073 0 -5.6693115 -2.5805206 -5.6693115 -5.7637787z" fill-rule="evenodd"/><path fill="#000000" fill-opacity="0.0" d="m293.19684 228.54068l118.26773 0l0 36.251984l-118.26773 0z" fill-rule="evenodd"/><path fill="#000000" d="m314.4639 242.18666l-1.6875 0l0 -11.84375l-4.15625 0l0 -1.484375l9.984375 0l0 1.484375l-4.140625 0l0 11.84375zm7.575989 -10.015625q0 0.359375 -0.03125 0.734375q-0.03125 0.359375 -0.0625 0.65625l0.109375 0q0.3125 -0.515625 0.796875 -0.84375q0.484375 -0.34375 1.078125 -0.515625q0.609375 -0.1875 1.234375 -0.1875q1.21875 0 2.03125 0.390625q0.8125 0.375 1.21875 1.1875q0.40625 0.796875 0.40625 2.078125l0 6.515625l-1.625 0l0 -6.40625q0 -1.203125 -0.546875 -1.796875q-0.53125 -0.609375 -1.6875 -0.609375q-1.125 0 -1.765625 0.421875q-0.625 0.421875 -0.890625 1.234375q-0.265625 0.8125 -0.265625 1.984375l0 5.171875l-1.65625 0l0 -14.171875l1.65625 0l0 4.15625zm14.545197 -0.171875q0.28125 0 0.609375 0.03125q0.328125 0.03125 0.5625 0.078125l-0.203125 1.515625q-0.234375 -0.0625 -0.53125 -0.09375q-0.28125 -0.03125 -0.546875 -0.03125q-0.578125 0 -1.109375 0.25q-0.515625 0.234375 -0.9375 0.671875q-0.40625 0.4375 -0.640625 1.0625q-0.21875 0.609375 -0.21875 1.375l0 5.328125l-1.65625 0l0 -10.0l1.34375 0l0.1875 1.828125l0.078125 0q0.3125 -0.5625 0.765625 -1.015625q0.453125 -0.453125 1.03125 -0.71875q0.578125 -0.28125 1.265625 -0.28125zm6.5348206 0q1.28125 0 2.203125 0.5625q0.921875 0.5625 1.421875 1.578125q0.5 1.015625 0.5 2.375l0 0.984375l-6.859375 0q0.046875 1.703125 0.875 2.59375q0.828125 0.875 2.3125 0.875q0.953125 0 1.6875 -0.171875q0.75 -0.171875 1.53125 -0.515625l0 1.4375q-0.765625 0.34375 -1.515625 0.5q-0.75 0.15625 -1.765625 0.15625q-1.421875 0 -2.515625 -0.578125q-1.09375 -0.578125 -1.703125 -1.71875q-0.59375 -1.15625 -0.59375 -2.8125q0 -1.640625 0.546875 -2.8125q0.546875 -1.1875 1.546875 -1.8125q1.0 -0.640625 2.328125 -0.640625zm-0.03125 1.34375q-1.171875 0 -1.859375 0.765625q-0.671875 0.75 -0.796875 2.09375l5.09375 0q0 -0.859375 -0.265625 -1.484375q-0.265625 -0.640625 -0.796875 -1.0q-0.53125 -0.375 -1.375 -0.375zm13.194 6.078125q0 0.96875 -0.484375 1.625q-0.484375 0.65625 -1.390625 1.0q-0.890625 0.328125 -2.109375 0.328125q-1.046875 0 -1.8125 -0.171875q-0.75 -0.171875 -1.328125 -0.46875l0 -1.484375q0.59375 0.296875 1.4375 0.546875q0.859375 0.25 1.734375 0.25q1.25 0 1.8125 -0.390625q0.5625 -0.40625 0.5625 -1.078125q0 -0.375 -0.21875 -0.671875q-0.203125 -0.296875 -0.734375 -0.59375q-0.53125 -0.296875 -1.515625 -0.671875q-0.96875 -0.375 -1.65625 -0.75q-0.6875 -0.375 -1.0625 -0.890625q-0.375 -0.53125 -0.375 -1.34375q0 -1.28125 1.03125 -1.96875q1.03125 -0.6875 2.71875 -0.6875q0.90625 0 1.703125 0.1875q0.796875 0.171875 1.484375 0.484375l-0.5625 1.3125q-0.625 -0.265625 -1.328125 -0.453125q-0.6875 -0.1875 -1.40625 -0.1875q-1.015625 0 -1.546875 0.328125q-0.53125 0.328125 -0.53125 0.890625q0 0.40625 0.234375 0.703125q0.25 0.28125 0.8125 0.5625q0.578125 0.265625 1.53125 0.625q0.953125 0.359375 1.625 0.734375q0.671875 0.375 1.015625 0.90625q0.359375 0.53125 0.359375 1.328125zm4.0769653 -7.25q0 0.359375 -0.03125 0.734375q-0.03125 0.359375 -0.0625 0.65625l0.109375 0q0.3125 -0.515625 0.796875 -0.84375q0.484375 -0.34375 1.078125 -0.515625q0.609375 -0.1875 1.234375 -0.1875q1.21875 0 2.03125 0.390625q0.8125 0.375 1.21875 1.1875q0.40625 0.796875 0.40625 2.078125l0 6.515625l-1.625 0l0 -6.40625q0 -1.203125 -0.546875 -1.796875q-0.53125 -0.609375 -1.6875 -0.609375q-1.125 0 -1.765625 0.421875q-0.625 0.421875 -0.890625 1.234375q-0.265625 0.8125 -0.265625 1.984375l0 5.171875l-1.65625 0l0 -14.171875l1.65625 0l0 4.15625zm18.576447 5.0q0 1.25 -0.328125 2.21875q-0.328125 0.953125 -0.9375 1.625q-0.609375 0.671875 -1.484375 1.015625q-0.859375 0.34375 -1.921875 0.34375q-0.984375 0 -1.828125 -0.34375q-0.828125 -0.34375 -1.453125 -1.015625q-0.609375 -0.671875 -0.953125 -1.625q-0.34375 -0.96875 -0.34375 -2.21875q0 -1.65625 0.546875 -2.796875q0.5625 -1.15625 1.609375 -1.765625q1.046875 -0.609375 2.484375 -0.609375q1.359375 0 2.390625 0.609375q1.046875 0.609375 1.625 1.765625q0.59375 1.140625 0.59375 2.796875zm-7.5625 0q0 1.171875 0.3125 2.046875q0.3125 0.859375 0.953125 1.328125q0.65625 0.46875 1.671875 0.46875q1.0 0 1.65625 -0.46875q0.65625 -0.46875 0.953125 -1.328125q0.3125 -0.875 0.3125 -2.046875q0 -1.203125 -0.3125 -2.03125q-0.3125 -0.84375 -0.96875 -1.296875q-0.640625 -0.46875 -1.65625 -0.46875q-1.53125 0 -2.234375 1.015625q-0.6875 1.0 -0.6875 2.78125zm11.802673 5.015625l-1.65625 0l0 -14.171875l1.65625 0l0 14.171875zm6.7039185 0.1875q-1.859375 0 -2.984375 -1.296875q-1.109375 -1.296875 -1.109375 -3.875q0 -2.578125 1.125 -3.890625q1.125 -1.3125 3.0 -1.3125q0.78125 0 1.359375 0.203125q0.578125 0.1875 1.0 0.53125q0.4375 0.328125 0.734375 0.734375l0.109375 0q-0.015625 -0.234375 -0.0625 -0.703125q-0.046875 -0.484375 -0.046875 -0.765625l0 -3.984375l1.640625 0l0 14.171875l-1.328125 0l-0.234375 -1.34375l-0.078125 0q-0.296875 0.421875 -0.734375 0.78125q-0.421875 0.34375 -1.015625 0.546875q-0.59375 0.203125 -1.375 0.203125zm0.265625 -1.359375q1.59375 0 2.234375 -0.859375q0.640625 -0.875 0.640625 -2.640625l0 -0.296875q0 -1.859375 -0.625 -2.859375q-0.609375 -1.0 -2.265625 -1.0q-1.328125 0 -2.0 1.0625q-0.65625 1.046875 -0.65625 2.828125q0 1.78125 0.65625 2.78125q0.671875 0.984375 2.015625 0.984375z" fill-rule="nonzero"/><path fill="#000000" d="m343.48126 264.58667l-4.8125 0l0 -0.96875l1.5625 -0.359375l0 -10.65625l-1.5625 -0.359375l0 -0.984375l4.8125 0l0 0.984375l-1.5625 0.359375l0 10.65625l1.5625 0.359375l0 0.96875zm6.371338 -13.328125q2.5 0 3.78125 0.75q1.28125 0.734375 1.28125 2.5625q0 0.78125 -0.296875 1.390625q-0.28125 0.609375 -0.859375 1.015625q-0.5625 0.390625 -1.375 0.53125l0 0.09375q0.828125 0.140625 1.5 0.5q0.6875 0.34375 1.078125 1.0q0.40625 0.65625 0.40625 1.703125q0 1.203125 -0.5625 2.0625q-0.5625 0.84375 -1.609375 1.28125q-1.03125 0.4375 -2.453125 0.4375l-4.6875 0l0 -13.328125l3.796875 0zm0.34375 5.671875q1.71875 0 2.34375 -0.546875q0.640625 -0.546875 0.640625 -1.625q0 -1.109375 -0.78125 -1.578125q-0.765625 -0.484375 -2.46875 -0.484375l-2.203125 0l0 4.234375l2.46875 0zm-2.46875 1.40625l0 4.828125l2.6875 0q1.78125 0 2.46875 -0.6875q0.6875 -0.6875 0.6875 -1.8125q0 -0.703125 -0.3125 -1.21875q-0.296875 -0.53125 -1.015625 -0.8125q-0.71875 -0.296875 -1.953125 -0.296875l-2.5625 0zm17.892181 6.25l-7.4375 0l0 -13.328125l7.4375 0l0 1.484375l-5.765625 0l0 4.15625l5.4375 0l0 1.453125l-5.4375 0l0 4.765625l5.765625 0l0 1.46875z" fill-rule="nonzero"/><path fill="#93c47d" d="m476.3071 217.10498l0 0c0 -8.82785 7.4877625 -15.984253 16.724396 -15.984253l0 0c4.4355774 0 8.689514 1.6840515 11.825958 4.6816864c3.1364136 2.997635 4.898468 7.063278 4.898468 11.302567l0 0c0 8.827866 -7.487793 15.984253 -16.724426 15.984253l0 0c-9.236633 0 -16.724396 -7.1563873 -16.724396 -15.984253z" fill-rule="evenodd"/><path fill="#000000" fill-opacity="0.0" d="m463.09448 234.20998l59.874023 0l0 24.913376l-59.874023 0z" fill-rule="evenodd"/><path fill="#000000" d="m481.46405 240.05855q1.65625 0 2.734375 0.421875q1.078125 0.421875 1.59375 1.265625q0.515625 0.84375 0.515625 2.109375q0 1.0625 -0.390625 1.78125q-0.390625 0.703125 -1.0 1.125q-0.59375 0.40625 -1.265625 0.65625l3.65625 5.96875l-1.96875 0l-3.21875 -5.5l-2.65625 0l0 5.5l-1.671875 0l0 -13.328125l3.671875 0zm-0.09375 1.46875l-1.90625 0l0 4.9375l2.0 0q1.625 0 2.359375 -0.640625q0.75 -0.640625 0.75 -1.890625q0 -0.875 -0.34375 -1.390625q-0.34375 -0.53125 -1.046875 -0.765625q-0.703125 -0.25 -1.8125 -0.25zm11.822937 -1.46875q2.5 0 3.78125 0.75q1.28125 0.734375 1.28125 2.5625q0 0.78125 -0.296875 1.390625q-0.28125 0.609375 -0.859375 1.015625q-0.5625 0.390625 -1.375 0.53125l0 0.09375q0.828125 0.140625 1.5 0.5q0.6875 0.34375 1.078125 1.0q0.40625 0.65625 0.40625 1.703125q0 1.203125 -0.5625 2.0625q-0.5625 0.84375 -1.609375 1.28125q-1.03125 0.4375 -2.453125 0.4375l-4.6875 0l0 -13.328125l3.796875 0zm0.34375 5.671875q1.71875 0 2.34375 -0.546875q0.640625 -0.546875 0.640625 -1.625q0 -1.109375 -0.78125 -1.578125q-0.765625 -0.484375 -2.46875 -0.484375l-2.203125 0l0 4.234375l2.46875 0zm-2.46875 1.40625l0 4.828125l2.6875 0q1.78125 0 2.46875 -0.6875q0.6875 -0.6875 0.6875 -1.8125q0 -0.703125 -0.3125 -1.21875q-0.296875 -0.53125 -1.015625 -0.8125q-0.71875 -0.296875 -1.953125 -0.296875l-2.5625 0zm17.892212 6.25l-7.4375 0l0 -13.328125l7.4375 0l0 1.484375l-5.765625 0l0 4.15625l5.4375 0l0 1.453125l-5.4375 0l0 4.765625l5.765625 0l0 1.46875z" fill-rule="nonzero"/><path fill="#000000" fill-opacity="0.0" d="m557.4488 380.24146l59.874023 0l0 24.913391l-59.874023 0z" fill-rule="evenodd"/><path fill="#000000" d="m578.1341 386.09003q2.625 0 3.8125 1.03125q1.1875 1.03125 1.1875 2.890625q0 0.828125 -0.265625 1.578125q-0.265625 0.75 -0.890625 1.359375q-0.609375 0.59375 -1.640625 0.9375q-1.015625 0.34375 -2.515625 0.34375l-1.53125 0l0 5.1875l-1.671875 0l0 -13.328125l3.515625 0zm-0.140625 1.4375l-1.703125 0l0 5.265625l1.34375 0q1.265625 0 2.109375 -0.265625q0.84375 -0.265625 1.25 -0.859375q0.40625 -0.609375 0.40625 -1.578125q0 -1.28125 -0.828125 -1.921875q-0.8125 -0.640625 -2.578125 -0.640625zm17.646423 11.890625l-1.96875 0l-4.734375 -6.359375l-1.359375 1.1875l0 5.171875l-1.671875 0l0 -13.328125l1.671875 0l0 6.578125q0.5625 -0.640625 1.140625 -1.265625q0.578125 -0.640625 1.15625 -1.28125l3.609375 -4.03125l1.953125 0l-5.28125 5.8125l5.484375 7.515625zm5.563843 0l-4.8125 0l0 -0.96875l1.5625 -0.359375l0 -10.65625l-1.5625 -0.359375l0 -0.984375l4.8125 0l0 0.984375l-1.5625 0.359375l0 10.65625l1.5625 0.359375l0 0.96875z" fill-rule="nonzero"/><path fill="#000000" fill-opacity="0.0" d="m747.8425 445.3622l182.48816 0l0 58.173218l-182.48816 0z" fill-rule="evenodd"/><path fill="#000000" d="m761.9988 457.56595l-0.328125 3.0625l3.078125 -0.859375l0.21875 1.46875l-2.9375 0.25l1.90625 2.515625l-1.375 0.765625l-1.359375 -2.8125l-1.234375 2.8125l-1.421875 -0.765625l1.859375 -2.515625l-2.90625 -0.25l0.21875 -1.46875l3.046875 0.859375l-0.34375 -3.0625l1.578125 0zm10.112915 1.84375q-0.921875 0 -1.65625 0.3125q-0.734375 0.296875 -1.25 0.90625q-0.5 0.59375 -0.78125 1.453125q-0.265625 0.859375 -0.265625 1.921875q0 1.421875 0.4375 2.46875q0.4375 1.03125 1.3125 1.59375q0.875 0.546875 2.1875 0.546875q0.75 0 1.421875 -0.125q0.671875 -0.125 1.3125 -0.3125l0 1.25q-0.640625 0.234375 -1.328125 0.34375q-0.671875 0.109375 -1.625 0.109375q-1.734375 0 -2.90625 -0.71875q-1.171875 -0.71875 -1.765625 -2.046875q-0.578125 -1.328125 -0.578125 -3.125q0 -1.296875 0.359375 -2.359375q0.375 -1.078125 1.0625 -1.859375q0.703125 -0.78125 1.71875 -1.203125q1.03125 -0.421875 2.359375 -0.421875q0.875 0 1.6875 0.171875q0.8125 0.171875 1.453125 0.5l-0.5625 1.203125q-0.53125 -0.234375 -1.1875 -0.421875q-0.640625 -0.1875 -1.40625 -0.1875zm6.4244995 1.734375l0 8.578125l-1.40625 0l0 -8.578125l1.40625 0zm-0.6875 -3.21875q0.328125 0 0.5625 0.21875q0.25 0.21875 0.25 0.6875q0 0.4375 -0.25 0.671875q-0.234375 0.21875 -0.5625 0.21875q-0.34375 0 -0.59375 -0.21875q-0.234375 -0.234375 -0.234375 -0.671875q0 -0.46875 0.234375 -0.6875q0.25 -0.21875 0.59375 -0.21875zm7.4092407 3.0625q0.234375 0 0.515625 0.03125q0.28125 0.015625 0.5 0.0625l-0.1875 1.296875q-0.203125 -0.046875 -0.453125 -0.078125q-0.25 -0.03125 -0.46875 -0.03125q-0.5 0 -0.953125 0.203125q-0.4375 0.203125 -0.796875 0.59375q-0.34375 0.375 -0.546875 0.90625q-0.203125 0.515625 -0.203125 1.171875l0 4.578125l-1.40625 0l0 -8.578125l1.15625 0l0.15625 1.5625l0.0625 0q0.28125 -0.46875 0.65625 -0.859375q0.390625 -0.390625 0.875 -0.625q0.5 -0.234375 1.09375 -0.234375zm5.725525 8.890625q-1.140625 0 -2.03125 -0.453125q-0.875 -0.46875 -1.390625 -1.4375q-0.5 -0.984375 -0.5 -2.5q0 -1.59375 0.53125 -2.578125q0.53125 -1.0 1.4375 -1.453125q0.90625 -0.46875 2.046875 -0.46875q0.65625 0 1.265625 0.140625q0.609375 0.125 1.0 0.328125l-0.4375 1.15625q-0.375 -0.140625 -0.890625 -0.265625q-0.515625 -0.125 -0.96875 -0.125q-0.859375 0 -1.421875 0.375q-0.5625 0.359375 -0.828125 1.078125q-0.265625 0.71875 -0.265625 1.796875q0 1.015625 0.265625 1.734375q0.265625 0.71875 0.8125 1.09375q0.546875 0.359375 1.359375 0.359375q0.703125 0 1.234375 -0.140625q0.546875 -0.140625 1.0 -0.34375l0 1.25q-0.4375 0.21875 -0.96875 0.328125q-0.515625 0.125 -1.25 0.125zm5.6487427 -0.15625l-1.40625 0l0 -12.15625l1.40625 0l0 12.15625zm6.0343018 -8.734375q1.109375 0 1.890625 0.484375q0.796875 0.46875 1.21875 1.34375q0.421875 0.875 0.421875 2.046875l0 0.84375l-5.859375 0q0.03125 1.453125 0.734375 2.21875q0.71875 0.75 2.0 0.75q0.8125 0 1.4375 -0.140625q0.640625 -0.15625 1.3125 -0.4375l0 1.21875q-0.65625 0.296875 -1.296875 0.421875q-0.640625 0.140625 -1.515625 0.140625q-1.21875 0 -2.15625 -0.484375q-0.9375 -0.5 -1.46875 -1.484375q-0.515625 -0.984375 -0.515625 -2.40625q0 -1.40625 0.46875 -2.40625q0.484375 -1.015625 1.328125 -1.5625q0.859375 -0.546875 2.0 -0.546875zm-0.015625 1.15625q-1.015625 0 -1.59375 0.65625q-0.578125 0.640625 -0.6875 1.78125l4.359375 0q0 -0.734375 -0.234375 -1.265625q-0.21875 -0.546875 -0.671875 -0.859375q-0.453125 -0.3125 -1.171875 -0.3125zm15.465271 5.203125q0 0.84375 -0.421875 1.40625q-0.40625 0.546875 -1.171875 0.84375q-0.765625 0.28125 -1.828125 0.28125q-0.890625 0 -1.546875 -0.140625q-0.640625 -0.140625 -1.140625 -0.40625l0 -1.265625q0.515625 0.25 1.234375 0.46875q0.734375 0.21875 1.484375 0.21875q1.078125 0 1.546875 -0.34375q0.484375 -0.34375 0.484375 -0.921875q0 -0.328125 -0.171875 -0.578125q-0.171875 -0.265625 -0.640625 -0.515625q-0.453125 -0.25 -1.296875 -0.578125q-0.828125 -0.3125 -1.421875 -0.625q-0.59375 -0.328125 -0.921875 -0.78125q-0.3125 -0.453125 -0.3125 -1.15625q0 -1.078125 0.890625 -1.671875q0.890625 -0.59375 2.328125 -0.59375q0.78125 0 1.453125 0.15625q0.6875 0.140625 1.28125 0.421875l-0.484375 1.109375q-0.53125 -0.21875 -1.125 -0.375q-0.59375 -0.15625 -1.21875 -0.15625q-0.859375 0 -1.328125 0.28125q-0.453125 0.265625 -0.453125 0.75q0 0.359375 0.203125 0.609375q0.21875 0.234375 0.703125 0.46875q0.484375 0.234375 1.3125 0.5625q0.8125 0.296875 1.390625 0.625q0.578125 0.3125 0.875 0.765625q0.296875 0.453125 0.296875 1.140625zm3.4921265 -6.203125l0 8.578125l-1.40625 0l0 -8.578125l1.40625 0zm-0.6875 -3.21875q0.328125 0 0.5625 0.21875q0.25 0.21875 0.25 0.6875q0 0.4375 -0.25 0.671875q-0.234375 0.21875 -0.5625 0.21875q-0.34375 0 -0.59375 -0.21875q-0.234375 -0.234375 -0.234375 -0.671875q0 -0.46875 0.234375 -0.6875q0.25 -0.21875 0.59375 -0.21875zm8.940491 11.796875l-6.265625 0l0 -0.921875l4.609375 -6.5625l-4.34375 0l0 -1.09375l5.890625 0l0 1.0625l-4.546875 6.421875l4.65625 0l0 1.09375zm5.3012695 -8.734375q1.109375 0 1.890625 0.484375q0.796875 0.46875 1.21875 1.34375q0.421875 0.875 0.421875 2.046875l0 0.84375l-5.859375 0q0.03125 1.453125 0.734375 2.21875q0.71875 0.75 2.0 0.75q0.8125 0 1.4375 -0.140625q0.640625 -0.15625 1.3125 -0.4375l0 1.21875q-0.65625 0.296875 -1.296875 0.421875q-0.640625 0.140625 -1.515625 0.140625q-1.21875 0 -2.15625 -0.484375q-0.9375 -0.5 -1.46875 -1.484375q-0.515625 -0.984375 -0.515625 -2.40625q0 -1.40625 0.46875 -2.40625q0.484375 -1.015625 1.328125 -1.5625q0.859375 -0.546875 2.0 -0.546875zm-0.015625 1.15625q-1.015625 0 -1.59375 0.65625q-0.578125 0.640625 -0.6875 1.78125l4.359375 0q0 -0.734375 -0.234375 -1.265625q-0.21875 -0.546875 -0.671875 -0.859375q-0.453125 -0.3125 -1.171875 -0.3125zm9.418396 0.921875l0 -1.140625l7.328125 0l0 1.140625l-7.328125 0zm0 3.1875l0 -1.140625l7.328125 0l0 1.140625l-7.328125 0zm17.030762 -5.25q1.5625 0 2.3125 0.6875q0.765625 0.6875 0.765625 2.1875l0 5.84375l-1.03125 0l-0.265625 -1.21875l-0.078125 0q-0.359375 0.46875 -0.75 0.78125q-0.390625 0.3125 -0.90625 0.453125q-0.5 0.140625 -1.21875 0.140625q-0.765625 0 -1.390625 -0.265625q-0.609375 -0.28125 -0.96875 -0.84375q-0.34375 -0.5625 -0.34375 -1.4375q0 -1.265625 1.0 -1.96875q1.015625 -0.703125 3.109375 -0.765625l1.453125 -0.046875l0 -0.515625q0 -1.0625 -0.46875 -1.46875q-0.453125 -0.421875 -1.296875 -0.421875q-0.671875 0 -1.28125 0.203125q-0.609375 0.1875 -1.140625 0.453125l-0.421875 -1.0625q0.546875 -0.296875 1.3125 -0.515625q0.78125 -0.21875 1.609375 -0.21875zm0.421875 4.578125q-1.609375 0.0625 -2.234375 0.515625q-0.609375 0.4375 -0.609375 1.25q0 0.734375 0.4375 1.078125q0.453125 0.328125 1.140625 0.328125q1.078125 0 1.796875 -0.59375q0.71875 -0.609375 0.71875 -1.859375l0 -0.765625l-1.25 0.046875zm14.710388 -4.59375q1.453125 0 2.171875 0.75q0.71875 0.734375 0.71875 2.40625l0 5.578125l-1.390625 0l0 -5.515625q0 -1.015625 -0.421875 -1.515625q-0.421875 -0.515625 -1.3125 -0.515625q-1.25 0 -1.796875 0.71875q-0.53125 0.71875 -0.53125 2.09375l0 4.734375l-1.390625 0l0 -5.515625q0 -0.671875 -0.1875 -1.125q-0.1875 -0.46875 -0.578125 -0.6875q-0.390625 -0.21875 -0.984375 -0.21875q-0.875 0 -1.375 0.359375q-0.484375 0.359375 -0.703125 1.046875q-0.21875 0.6875 -0.21875 1.6875l0 4.453125l-1.40625 0l0 -8.578125l1.140625 0l0.203125 1.171875l0.078125 0q0.28125 -0.453125 0.671875 -0.75q0.390625 -0.296875 0.859375 -0.4375q0.484375 -0.140625 1.0 -0.140625q0.984375 0 1.640625 0.359375q0.671875 0.34375 0.984375 1.078125l0.078125 0q0.4375 -0.734375 1.171875 -1.078125q0.75 -0.359375 1.578125 -0.359375zm13.006958 4.4375q0 1.0625 -0.28125 1.890625q-0.28125 0.828125 -0.796875 1.40625q-0.515625 0.5625 -1.265625 0.859375q-0.734375 0.296875 -1.65625 0.296875q-0.84375 0 -1.5625 -0.296875q-0.71875 -0.296875 -1.25 -0.859375q-0.53125 -0.578125 -0.828125 -1.40625q-0.296875 -0.828125 -0.296875 -1.890625q0 -1.4375 0.484375 -2.421875q0.484375 -0.984375 1.375 -1.5q0.890625 -0.515625 2.125 -0.515625q1.171875 0 2.0625 0.515625q0.890625 0.515625 1.390625 1.5q0.5 0.984375 0.5 2.421875zm-6.46875 0q0 1.0 0.25 1.75q0.265625 0.734375 0.828125 1.140625q0.5625 0.390625 1.421875 0.390625q0.875 0 1.421875 -0.390625q0.5625 -0.40625 0.828125 -1.140625q0.265625 -0.75 0.265625 -1.75q0 -1.03125 -0.28125 -1.75q-0.265625 -0.71875 -0.8125 -1.109375q-0.546875 -0.390625 -1.4375 -0.390625q-1.3125 0 -1.90625 0.859375q-0.578125 0.859375 -0.578125 2.390625zm15.867493 -4.28125l0 8.578125l-1.15625 0l-0.203125 -1.140625l-0.0625 0q-0.28125 0.453125 -0.71875 0.75q-0.421875 0.28125 -0.9375 0.40625q-0.515625 0.140625 -1.0625 0.140625q-1.03125 0 -1.734375 -0.328125q-0.6875 -0.328125 -1.046875 -1.015625q-0.34375 -0.6875 -0.34375 -1.765625l0 -5.625l1.421875 0l0 5.515625q0 1.03125 0.453125 1.546875q0.46875 0.5 1.453125 0.5q0.953125 0 1.5 -0.359375q0.5625 -0.359375 0.796875 -1.046875q0.234375 -0.703125 0.234375 -1.6875l0 -4.46875l1.40625 0zm6.8411255 -0.15625q1.546875 0 2.328125 0.75q0.78125 0.734375 0.78125 2.40625l0 5.578125l-1.390625 0l0 -5.484375q0 -1.046875 -0.46875 -1.546875q-0.46875 -0.515625 -1.453125 -0.515625q-1.421875 0 -1.96875 0.796875q-0.546875 0.796875 -0.546875 2.296875l0 4.453125l-1.40625 0l0 -8.578125l1.140625 0l0.203125 1.171875l0.078125 0q0.296875 -0.453125 0.71875 -0.75q0.421875 -0.296875 0.921875 -0.4375q0.515625 -0.140625 1.0625 -0.140625zm8.622437 7.75q0.328125 0 0.65625 -0.0625q0.34375 -0.0625 0.546875 -0.125l0 1.078125q-0.21875 0.109375 -0.640625 0.171875q-0.40625 0.078125 -0.796875 0.078125q-0.671875 0 -1.25 -0.21875q-0.5625 -0.234375 -0.921875 -0.8125q-0.34375 -0.578125 -0.34375 -1.625l0 -4.984375l-1.21875 0l0 -0.671875l1.234375 -0.5625l0.5625 -1.828125l0.828125 0l0 1.96875l2.484375 0l0 1.09375l-2.484375 0l0 4.953125q0 0.78125 0.375 1.171875q0.375 0.375 0.96875 0.375z" fill-rule="nonzero"/><path fill="#000000" d="m765.655 484.62534q0 1.0625 -0.28125 1.890625q-0.28125 0.828125 -0.796875 1.40625q-0.515625 0.5625 -1.265625 0.859375q-0.734375 0.296875 -1.65625 0.296875q-0.84375 0 -1.5625 -0.296875q-0.71875 -0.296875 -1.25 -0.859375q-0.53125 -0.578125 -0.828125 -1.40625q-0.296875 -0.828125 -0.296875 -1.890625q0 -1.4375 0.484375 -2.421875q0.484375 -0.984375 1.375 -1.5q0.890625 -0.515625 2.125 -0.515625q1.171875 0 2.0625 0.515625q0.890625 0.515625 1.390625 1.5q0.5 0.984375 0.5 2.421875zm-6.46875 0q0 1.0 0.25 1.75q0.265625 0.734375 0.828125 1.140625q0.5625 0.390625 1.421875 0.390625q0.875 0 1.421875 -0.390625q0.5625 -0.40625 0.828125 -1.140625q0.265625 -0.75 0.265625 -1.75q0 -1.03125 -0.28125 -1.75q-0.265625 -0.71875 -0.8125 -1.109375q-0.546875 -0.390625 -1.4375 -0.390625q-1.3125 0 -1.90625 0.859375q-0.578125 0.859375 -0.578125 2.390625zm12.648743 -3.1875l-2.15625 0l0 7.484375l-1.40625 0l0 -7.484375l-1.515625 0l0 -0.65625l1.515625 -0.484375l0 -0.5q0 -1.09375 0.328125 -1.78125q0.328125 -0.6875 0.9375 -1.0q0.625 -0.328125 1.515625 -0.328125q0.515625 0 0.9375 0.09375q0.421875 0.078125 0.71875 0.1875l-0.359375 1.109375q-0.265625 -0.078125 -0.609375 -0.15625q-0.328125 -0.09375 -0.671875 -0.09375q-0.703125 0 -1.046875 0.484375q-0.34375 0.46875 -0.34375 1.46875l0 0.5625l2.15625 0l0 1.09375zm13.1640625 3.1875q0 1.0625 -0.28125 1.890625q-0.28125 0.828125 -0.796875 1.40625q-0.515625 0.5625 -1.265625 0.859375q-0.734375 0.296875 -1.65625 0.296875q-0.84375 0 -1.5625 -0.296875q-0.71875 -0.296875 -1.25 -0.859375q-0.53125 -0.578125 -0.828125 -1.40625q-0.296875 -0.828125 -0.296875 -1.890625q0 -1.4375 0.484375 -2.421875q0.484375 -0.984375 1.375 -1.5q0.890625 -0.515625 2.125 -0.515625q1.171875 0 2.0625 0.515625q0.890625 0.515625 1.390625 1.5q0.5 0.984375 0.5 2.421875zm-6.46875 0q0 1.0 0.25 1.75q0.265625 0.734375 0.828125 1.140625q0.5625 0.390625 1.421875 0.390625q0.875 0 1.421875 -0.390625q0.5625 -0.40625 0.828125 -1.140625q0.265625 -0.75 0.265625 -1.75q0 -1.03125 -0.28125 -1.75q-0.265625 -0.71875 -0.8125 -1.109375q-0.546875 -0.390625 -1.4375 -0.390625q-1.3125 0 -1.90625 0.859375q-0.578125 0.859375 -0.578125 2.390625zm12.820618 -4.4375q1.546875 0 2.328125 0.75q0.78125 0.734375 0.78125 2.40625l0 5.578125l-1.390625 0l0 -5.484375q0 -1.046875 -0.46875 -1.546875q-0.46875 -0.515625 -1.453125 -0.515625q-1.421875 0 -1.96875 0.796875q-0.546875 0.796875 -0.546875 2.296875l0 4.453125l-1.40625 0l0 -8.578125l1.140625 0l0.203125 1.171875l0.078125 0q0.296875 -0.453125 0.71875 -0.75q0.421875 -0.296875 0.921875 -0.4375q0.515625 -0.140625 1.0625 -0.140625zm5.0442505 5.078125l0 -1.25l3.875 0l0 1.25l-3.875 0zm9.308289 3.8125q-1.140625 0 -2.03125 -0.453125q-0.875 -0.46875 -1.390625 -1.4375q-0.5 -0.984375 -0.5 -2.5q0 -1.59375 0.53125 -2.578125q0.53125 -1.0 1.4375 -1.453125q0.90625 -0.46875 2.046875 -0.46875q0.65625 0 1.265625 0.140625q0.609375 0.125 1.0 0.328125l-0.4375 1.15625q-0.375 -0.140625 -0.890625 -0.265625q-0.515625 -0.125 -0.96875 -0.125q-0.859375 0 -1.421875 0.375q-0.5625 0.359375 -0.828125 1.078125q-0.265625 0.71875 -0.265625 1.796875q0 1.015625 0.265625 1.734375q0.265625 0.71875 0.8125 1.09375q0.546875 0.359375 1.359375 0.359375q0.703125 0 1.234375 -0.140625q0.546875 -0.140625 1.0 -0.34375l0 1.25q-0.4375 0.21875 -0.96875 0.328125q-0.515625 0.125 -1.25 0.125zm5.6487427 -8.75q0 0.3125 -0.03125 0.640625q-0.015625 0.3125 -0.046875 0.5625l0.09375 0q0.28125 -0.453125 0.6875 -0.734375q0.421875 -0.296875 0.921875 -0.4375q0.515625 -0.15625 1.0625 -0.15625q1.046875 0 1.734375 0.328125q0.703125 0.328125 1.046875 1.015625q0.359375 0.6875 0.359375 1.796875l0 5.578125l-1.390625 0l0 -5.484375q0 -1.046875 -0.46875 -1.546875q-0.46875 -0.515625 -1.453125 -0.515625q-0.96875 0 -1.515625 0.359375q-0.53125 0.359375 -0.765625 1.0625q-0.234375 0.6875 -0.234375 1.6875l0 4.4375l-1.40625 0l0 -12.15625l1.40625 0l0 3.5625zm11.731812 -0.125q1.5625 0 2.3125 0.6875q0.765625 0.6875 0.765625 2.1875l0 5.84375l-1.03125 0l-0.265625 -1.21875l-0.078125 0q-0.359375 0.46875 -0.75 0.78125q-0.390625 0.3125 -0.90625 0.453125q-0.5 0.140625 -1.21875 0.140625q-0.765625 0 -1.390625 -0.265625q-0.609375 -0.28125 -0.96875 -0.84375q-0.34375 -0.5625 -0.34375 -1.4375q0 -1.265625 1.0 -1.96875q1.015625 -0.703125 3.109375 -0.765625l1.453125 -0.046875l0 -0.515625q0 -1.0625 -0.46875 -1.46875q-0.453125 -0.421875 -1.296875 -0.421875q-0.671875 0 -1.28125 0.203125q-0.609375 0.1875 -1.140625 0.453125l-0.421875 -1.0625q0.546875 -0.296875 1.3125 -0.515625q0.78125 -0.21875 1.609375 -0.21875zm0.421875 4.578125q-1.609375 0.0625 -2.234375 0.515625q-0.609375 0.4375 -0.609375 1.25q0 0.734375 0.4375 1.078125q0.453125 0.328125 1.140625 0.328125q1.078125 0 1.796875 -0.59375q0.71875 -0.609375 0.71875 -1.859375l0 -0.765625l-1.25 0.046875zm6.710388 -4.4375l0 8.578125l-1.40625 0l0 -8.578125l1.40625 0zm-0.6875 -3.21875q0.328125 0 0.5625 0.21875q0.25 0.21875 0.25 0.6875q0 0.4375 -0.25 0.671875q-0.234375 0.21875 -0.5625 0.21875q-0.34375 0 -0.59375 -0.21875q-0.234375 -0.234375 -0.234375 -0.671875q0 -0.46875 0.234375 -0.6875q0.25 -0.21875 0.59375 -0.21875zm7.5342407 3.0625q1.546875 0 2.328125 0.75q0.78125 0.734375 0.78125 2.40625l0 5.578125l-1.390625 0l0 -5.484375q0 -1.046875 -0.46875 -1.546875q-0.46875 -0.515625 -1.453125 -0.515625q-1.421875 0 -1.96875 0.796875q-0.546875 0.796875 -0.546875 2.296875l0 4.453125l-1.40625 0l0 -8.578125l1.140625 0l0.203125 1.171875l0.078125 0q0.296875 -0.453125 0.71875 -0.75q0.421875 -0.296875 0.921875 -0.4375q0.515625 -0.140625 1.0625 -0.140625zm15.50116 6.359375q0 0.84375 -0.421875 1.40625q-0.40625 0.546875 -1.171875 0.84375q-0.765625 0.28125 -1.828125 0.28125q-0.890625 0 -1.546875 -0.140625q-0.640625 -0.140625 -1.140625 -0.40625l0 -1.265625q0.515625 0.25 1.234375 0.46875q0.734375 0.21875 1.484375 0.21875q1.078125 0 1.546875 -0.34375q0.484375 -0.34375 0.484375 -0.921875q0 -0.328125 -0.171875 -0.578125q-0.171875 -0.265625 -0.640625 -0.515625q-0.453125 -0.25 -1.296875 -0.578125q-0.828125 -0.3125 -1.421875 -0.625q-0.59375 -0.328125 -0.921875 -0.78125q-0.3125 -0.453125 -0.3125 -1.15625q0 -1.078125 0.890625 -1.671875q0.890625 -0.59375 2.328125 -0.59375q0.78125 0 1.453125 0.15625q0.6875 0.140625 1.28125 0.421875l-0.484375 1.109375q-0.53125 -0.21875 -1.125 -0.375q-0.59375 -0.15625 -1.21875 -0.15625q-0.859375 0 -1.328125 0.28125q-0.453125 0.265625 -0.453125 0.75q0 0.359375 0.203125 0.609375q0.21875 0.234375 0.703125 0.46875q0.484375 0.234375 1.3125 0.5625q0.8125 0.296875 1.390625 0.625q0.578125 0.3125 0.875 0.765625q0.296875 0.453125 0.296875 1.140625zm4.9452515 1.390625q0.328125 0 0.65625 -0.0625q0.34375 -0.0625 0.546875 -0.125l0 1.078125q-0.21875 0.109375 -0.640625 0.171875q-0.40625 0.078125 -0.796875 0.078125q-0.671875 0 -1.25 -0.21875q-0.5625 -0.234375 -0.921875 -0.8125q-0.34375 -0.578125 -0.34375 -1.625l0 -4.984375l-1.21875 0l0 -0.671875l1.234375 -0.5625l0.5625 -1.828125l0.828125 0l0 1.96875l2.484375 0l0 1.09375l-2.484375 0l0 4.953125q0 0.78125 0.375 1.171875q0.375 0.375 0.96875 0.375zm10.369751 -3.3125q0 1.0625 -0.28125 1.890625q-0.28125 0.828125 -0.796875 1.40625q-0.515625 0.5625 -1.265625 0.859375q-0.734375 0.296875 -1.65625 0.296875q-0.84375 0 -1.5625 -0.296875q-0.71875 -0.296875 -1.25 -0.859375q-0.53125 -0.578125 -0.828125 -1.40625q-0.296875 -0.828125 -0.296875 -1.890625q0 -1.4375 0.484375 -2.421875q0.484375 -0.984375 1.375 -1.5q0.890625 -0.515625 2.125 -0.515625q1.171875 0 2.0625 0.515625q0.890625 0.515625 1.390625 1.5q0.5 0.984375 0.5 2.421875zm-6.46875 0q0 1.0 0.25 1.75q0.265625 0.734375 0.828125 1.140625q0.5625 0.390625 1.421875 0.390625q0.875 0 1.421875 -0.390625q0.5625 -0.40625 0.828125 -1.140625q0.265625 -0.75 0.265625 -1.75q0 -1.03125 -0.28125 -1.75q-0.265625 -0.71875 -0.8125 -1.109375q-0.546875 -0.390625 -1.4375 -0.390625q-1.3125 0 -1.90625 0.859375q-0.578125 0.859375 -0.578125 2.390625zm12.695679 -4.4375q0.234375 0 0.515625 0.03125q0.28125 0.015625 0.5 0.0625l-0.1875 1.296875q-0.203125 -0.046875 -0.453125 -0.078125q-0.25 -0.03125 -0.46875 -0.03125q-0.5 0 -0.953125 0.203125q-0.4375 0.203125 -0.796875 0.59375q-0.34375 0.375 -0.546875 0.90625q-0.203125 0.515625 -0.203125 1.171875l0 4.578125l-1.40625 0l0 -8.578125l1.15625 0l0.15625 1.5625l0.0625 0q0.28125 -0.46875 0.65625 -0.859375q0.390625 -0.390625 0.875 -0.625q0.5 -0.234375 1.09375 -0.234375zm5.537964 0.015625q1.5625 0 2.3125 0.6875q0.765625 0.6875 0.765625 2.1875l0 5.84375l-1.03125 0l-0.265625 -1.21875l-0.078125 0q-0.359375 0.46875 -0.75 0.78125q-0.390625 0.3125 -0.90625 0.453125q-0.5 0.140625 -1.21875 0.140625q-0.765625 0 -1.390625 -0.265625q-0.609375 -0.28125 -0.96875 -0.84375q-0.34375 -0.5625 -0.34375 -1.4375q0 -1.265625 1.0 -1.96875q1.015625 -0.703125 3.109375 -0.765625l1.453125 -0.046875l0 -0.515625q0 -1.0625 -0.46875 -1.46875q-0.453125 -0.421875 -1.296875 -0.421875q-0.671875 0 -1.28125 0.203125q-0.609375 0.1875 -1.140625 0.453125l-0.421875 -1.0625q0.546875 -0.296875 1.3125 -0.515625q0.78125 -0.21875 1.609375 -0.21875zm0.421875 4.578125q-1.609375 0.0625 -2.234375 0.515625q-0.609375 0.4375 -0.609375 1.25q0 0.734375 0.4375 1.078125q0.453125 0.328125 1.140625 0.328125q1.078125 0 1.796875 -0.59375q0.71875 -0.609375 0.71875 -1.859375l0 -0.765625l-1.25 0.046875zm8.351013 -4.59375q0.84375 0 1.515625 0.328125q0.6875 0.3125 1.171875 0.96875l0.078125 0l0.1875 -1.140625l1.125 0l0 8.71875q0 1.21875 -0.421875 2.046875q-0.421875 0.828125 -1.265625 1.234375q-0.84375 0.421875 -2.15625 0.421875q-0.921875 0 -1.703125 -0.140625q-0.78125 -0.140625 -1.390625 -0.40625l0 -1.296875q0.609375 0.3125 1.421875 0.484375q0.828125 0.1875 1.75 0.1875q1.109375 0 1.734375 -0.65625q0.640625 -0.640625 0.640625 -1.765625l0 -0.328125q0 -0.1875 0.015625 -0.546875q0.015625 -0.359375 0.03125 -0.515625l-0.0625 0q-0.453125 0.65625 -1.125 0.984375q-0.65625 0.3125 -1.53125 0.3125q-1.671875 0 -2.609375 -1.15625q-0.9375 -1.171875 -0.9375 -3.265625q0 -2.046875 0.9375 -3.25q0.9375 -1.21875 2.59375 -1.21875zm0.1875 1.1875q-0.71875 0 -1.234375 0.390625q-0.5 0.375 -0.765625 1.109375q-0.25 0.734375 -0.25 1.796875q0 1.578125 0.578125 2.421875q0.578125 0.84375 1.703125 0.84375q0.65625 0 1.109375 -0.171875q0.46875 -0.171875 0.765625 -0.53125q0.3125 -0.359375 0.453125 -0.921875q0.15625 -0.5625 0.15625 -1.328125l0 -0.328125q0 -1.171875 -0.265625 -1.890625q-0.265625 -0.71875 -0.828125 -1.046875q-0.5625 -0.34375 -1.421875 -0.34375zm9.918152 -1.1875q1.109375 0 1.890625 0.484375q0.796875 0.46875 1.21875 1.34375q0.421875 0.875 0.421875 2.046875l0 0.84375l-5.859375 0q0.03125 1.453125 0.734375 2.21875q0.71875 0.75 2.0 0.75q0.8125 0 1.4375 -0.140625q0.640625 -0.15625 1.3125 -0.4375l0 1.21875q-0.65625 0.296875 -1.296875 0.421875q-0.640625 0.140625 -1.515625 0.140625q-1.21875 0 -2.15625 -0.484375q-0.9375 -0.5 -1.46875 -1.484375q-0.515625 -0.984375 -0.515625 -2.40625q0 -1.40625 0.46875 -2.40625q0.484375 -1.015625 1.328125 -1.5625q0.859375 -0.546875 2.0 -0.546875zm-0.015625 1.15625q-1.015625 0 -1.59375 0.65625q-0.578125 0.640625 -0.6875 1.78125l4.359375 0q0 -0.734375 -0.234375 -1.265625q-0.21875 -0.546875 -0.671875 -0.859375q-0.453125 -0.3125 -1.171875 -0.3125z" fill-rule="nonzero"/></g></svg>